# xmcd
#
# Track frame offsets: 
#        150
#        22551
#        43073
#        58250
#        75300
#        98927
#        116852
#        136421
#        157460
#        180434
#        196515
#        214015
#
# Disc length: 3176 seconds
#
# Revision: 0
# Processed by: cddbd v1.5.2PL0 Copyright (c) Steve Scherf et al.
# Submitted via: ExactAudioCopy v0.99pb5
#
DISCID=9c0c660c
DTITLE=Various Artist - The Best Inspirational Country [Cracker Barrell]
DYEAR=2011
DGENRE=Country
TTITLE0=Tim McGraw/Live Like You Were Dying
TTITLE1=Rascal Flatts/He Ain't The Leavin' Kind
TTITLE2=Randy Travis/Three Wooden Crosses
TTITLE3=LeAnn Rimes/I Need You
TTITLE4=Vince Gill/Go Rest High On That Mountain
TTITLE5=Wynonna/I Can Only Imagine
TTITLE6=Diamond Rio/God Is There
TTITLE7=Jo Dee Messina/That's God
TTITLE8=Clay Walker/The Chain Of Love
TTITLE9=Alison Krauss/A Living Prayer
TTITLE10=John Michael Montgomery/The Little Girl
TTITLE11=The Judds/Love Can Build A Bridge
EXTD=
EXTT0=
EXTT1=
EXTT2=
EXTT3=
EXTT4=
EXTT5=
EXTT6=
EXTT7=
EXTT8=
EXTT9=
EXTT10=
EXTT11=
PLAYORDER=
